<svg width="100" height="21" viewBox="0 0 100 21" fill="none" xmlns="http://www.w3.org/2000/svg">
<path d="M9.40238 4.24154C9.59525 4.24154 9.78245 4.25002 9.96964 4.26424C10.5766 4.31541 11.1609 4.44904 11.7083 4.64803C13.0896 5.15403 14.261 6.09499 15.0523 7.30881C14.7233 4.78451 13.1917 2.63827 11.0503 1.47561C9.9498 0.875807 8.68763 0.534668 7.34605 0.534668C6.21437 0.534668 4.45582 0.773418 3.4858 1.20835C2.03361 1.73425 1.08347 2.5899 0 3.55926L4.48987 6.37071C5.71799 5.05739 7.46234 4.24154 9.40238 4.24154Z" fill="white"/>
<path d="M14.1299 10.5795H14.1271C13.9909 10.5909 13.8548 10.5995 13.7215 10.6051H13.6875C13.1231 10.6194 12.5529 10.5625 11.9998 10.4346C11.2822 10.2697 10.5845 9.98826 9.94066 9.58175C9.51522 9.31738 9.11531 8.99904 8.74659 8.62949C8.64164 8.52716 8.54243 8.4191 8.44883 8.31108C7.75961 7.5265 7.28593 6.62536 7.02216 5.6759C6.25635 6.03977 5.56993 6.54575 4.99699 7.15409C4.33613 7.85623 3.8256 8.70057 3.51361 9.63582C3.45121 9.82628 3.39446 10.0224 3.34624 10.2242L3.2101 10.9917L2.66839 14.0675L2.54077 14.7839L3.01157 14.3802L3.80292 13.698L3.6753 11.981C3.64693 11.8076 3.63271 11.6314 3.63271 11.4494V11.4323L8.22191 11.5347C7.47596 11.8758 6.15989 13.0243 5.64652 13.5644L5.64084 13.5729C5.52455 13.6951 5.41396 13.8202 5.30618 13.951L4.91473 15.5259L4.86937 15.7078H4.87221L4.76163 16.1512L4.74175 16.2337L3.63271 20.7024L7.81627 18.4595L7.85602 18.2519L8.01487 17.4162C8.03188 17.3366 8.04888 17.2684 8.0659 17.2087C8.11128 17.0381 8.134 16.9557 8.16236 16.879C8.20774 16.7368 8.2588 16.5975 8.30702 16.4724C9.26285 13.9794 10.4626 13.4108 10.3831 13.4108C10.4455 13.3597 10.5136 13.3113 10.5817 13.2659C11.1631 12.8594 11.9233 12.5666 12.7458 12.4529C12.8706 12.4358 13.0124 12.4216 13.1599 12.4187L13.1997 12.4159L13.9569 11.5716L14.9582 10.4516L14.9042 10.463C14.6461 10.517 14.388 10.5568 14.1299 10.5795Z" fill="white"/>
<path d="M23.2182 14.0833C23.0622 14.5012 22.8127 14.8224 22.4439 15.0413C22.0837 15.2574 21.6696 15.3625 21.2044 15.3625C20.7251 15.3625 20.3507 15.2659 20.0784 15.0584C19.8061 14.8537 19.6643 14.5752 19.6643 14.2227C19.6643 13.4892 20.2231 13.1197 21.3434 13.1197H23.2182V14.0833ZM24.7697 8.53729C23.9897 7.84083 22.8694 7.48828 21.4115 7.48828C20.6599 7.48828 19.9196 7.58779 19.1992 7.78678C18.4845 7.98861 17.8633 8.27003 17.3528 8.63105L18.3313 10.5413C18.6716 10.2741 19.0857 10.0609 19.5707 9.89887C20.0529 9.74537 20.5436 9.66582 21.0457 9.66582C21.7717 9.66582 22.3106 9.825 22.668 10.1462C23.0367 10.4674 23.2182 10.928 23.2182 11.5221H21.0457C19.6729 11.5221 18.6518 11.7779 17.9909 12.2754C17.3301 12.7785 17.0039 13.475 17.0039 14.3506C17.0039 14.8964 17.1429 15.391 17.4265 15.8174C17.7045 16.2523 18.1101 16.5934 18.6376 16.8408C19.1709 17.0795 19.7977 17.2075 20.5266 17.2075C21.9249 17.2075 22.8779 16.7668 23.3884 15.8913V17.0681H25.944V11.6812C25.944 10.2798 25.5554 9.2309 24.7697 8.53729Z" fill="white"/>
<path d="M47.2782 11.4464C47.3633 10.4827 47.7178 9.71519 48.356 9.11538C48.9828 8.52126 49.7599 8.22558 50.6902 8.22558C51.6347 8.22558 52.4176 8.52126 53.0557 9.11538C53.6854 9.71519 54.0428 10.4827 54.125 11.4464H47.2782ZM55.3787 12.0121C55.3787 11.0598 55.1745 10.2098 54.7689 9.47072C54.3633 8.72593 53.8102 8.14315 53.0983 7.73096C52.3892 7.3074 51.5893 7.09705 50.6902 7.09705C49.7968 7.09705 48.9941 7.3074 48.2794 7.73096C47.5646 8.14315 46.9974 8.72594 46.5918 9.47641C46.1805 10.2269 45.9763 11.074 45.9763 12.0121C45.9763 12.9587 46.1862 13.8086 46.6202 14.5591C47.0456 15.2982 47.6412 15.8895 48.4042 16.3102C49.1729 16.7395 50.0493 16.9498 51.042 16.9498C51.8106 16.9498 52.5169 16.8162 53.1607 16.5433C53.8046 16.2761 54.3434 15.8838 54.7689 15.3636L54.0371 14.5136C53.6712 14.9372 53.2316 15.2527 52.7324 15.4687C52.2304 15.6819 51.6773 15.7928 51.076 15.7928C50.0152 15.7928 49.1331 15.4773 48.4325 14.8604C47.7405 14.2407 47.3576 13.4305 47.2782 12.4185H55.356L55.3787 12.0121Z" fill="white"/>
<path d="M62.7689 12.7142C62.4399 12.356 62.0427 12.1116 61.5804 11.9638C61.1096 11.8159 60.4969 11.6681 59.7283 11.5231C59.0958 11.4123 58.608 11.2985 58.2591 11.199C57.9017 11.0938 57.6011 10.9347 57.3629 10.7101C57.1246 10.4827 57.0055 10.1899 57.0055 9.82605C57.0055 9.34848 57.2154 8.9647 57.6437 8.66906C58.0634 8.37626 58.6902 8.22558 59.5241 8.22558C60.6218 8.22558 61.5748 8.49853 62.3689 9.0557L62.939 8.00385C62.5306 7.73663 62.0201 7.52065 61.3989 7.35293C60.7693 7.18237 60.1453 7.09705 59.5241 7.09705C58.3187 7.09705 57.3827 7.35857 56.7105 7.87594C56.0383 8.38762 55.7064 9.05565 55.7064 9.86013C55.7064 10.5111 55.8738 11.0228 56.2085 11.3895C56.5432 11.7619 56.9488 12.0178 57.4253 12.1741C57.9074 12.3276 58.5371 12.4754 59.3227 12.6232C59.9098 12.7227 60.3778 12.8194 60.7324 12.9246C61.0926 13.0297 61.3848 13.1833 61.6145 13.3851C61.8471 13.5898 61.9634 13.8712 61.9634 14.2208C61.9634 14.7268 61.7535 15.1191 61.3309 15.392C60.9083 15.6649 60.2587 15.8042 59.3766 15.8042C58.7129 15.8042 58.0747 15.7076 57.4678 15.5029C56.8523 15.2982 56.3503 15.0424 55.9447 14.7183L55.3547 15.7502C55.7603 16.0941 56.3219 16.3812 57.0338 16.6058C57.7486 16.8361 58.5031 16.9498 59.2859 16.9498C60.531 16.9498 61.5095 16.694 62.2129 16.205C62.9163 15.7076 63.2681 15.0367 63.2681 14.1867C63.2681 13.5641 63.1064 13.0724 62.7689 12.7142Z" fill="white"/>
<path d="M72.5117 13.9849C72.194 14.5648 71.7685 15.0082 71.2155 15.3209C70.6624 15.6308 70.0554 15.7929 69.3775 15.7929C68.6883 15.7929 68.0728 15.6308 67.5368 15.3209C66.9922 15.0082 66.5583 14.5648 66.2491 13.9849C65.9343 13.4078 65.7811 12.7512 65.7811 12.0121C65.7811 11.2786 65.9343 10.6277 66.2491 10.0563C66.5583 9.4821 66.9922 9.04143 67.5368 8.72021C68.0728 8.40183 68.6883 8.24266 69.3775 8.24266C70.0554 8.24266 70.6624 8.40183 71.2155 8.72021C71.7685 9.04143 72.194 9.4821 72.5117 10.0563C72.8237 10.6277 72.9769 11.2786 72.9769 12.0121C72.9769 12.7512 72.8237 13.4078 72.5117 13.9849ZM73.6547 9.45364C73.2434 8.70886 72.662 8.12899 71.9302 7.71396C71.1956 7.30745 70.3759 7.09705 69.4711 7.09705C68.6628 7.09705 67.9339 7.27331 67.29 7.61728C66.6547 7.96124 66.1385 8.45301 65.7443 9.08977V7.17665H64.4934V20.4264H65.801V15.0367C66.1981 15.6592 66.7199 16.1368 67.3468 16.458C67.9849 16.7877 68.6883 16.9498 69.4711 16.9498C70.3901 16.9498 71.2155 16.7451 71.9416 16.3329C72.6705 15.9207 73.2434 15.3437 73.6547 14.5932C74.0773 13.8428 74.2815 12.9871 74.2815 12.0121C74.2815 11.0598 74.0773 10.2041 73.6547 9.45364Z" fill="white"/>
<path d="M76.2538 11.4464C76.3446 10.4827 76.6991 9.71519 77.3316 9.11538C77.9584 8.52126 78.7441 8.22558 79.6716 8.22558C80.6104 8.22558 81.4017 8.52126 82.0313 9.11538C82.661 9.71519 83.0184 10.4827 83.1006 11.4464H76.2538ZM84.3543 12.0121C84.3543 11.0598 84.1501 10.2098 83.7445 9.47072C83.3446 8.72593 82.7858 8.14315 82.0739 7.73096C81.3648 7.3074 80.5593 7.09705 79.6716 7.09705C78.7781 7.09705 77.9726 7.3074 77.2522 7.73096C76.5374 8.14315 75.973 8.72594 75.5674 9.47641C75.1562 10.2269 74.9519 11.074 74.9519 12.0121C74.9519 12.9587 75.1675 13.8086 75.5958 14.5591C76.0212 15.2982 76.6168 15.8895 77.3855 16.3102C78.1485 16.7395 79.0305 16.9498 80.0147 16.9498C80.7919 16.9498 81.4981 16.8162 82.142 16.5433C82.7858 16.2761 83.3162 15.8838 83.7445 15.3636L83.0099 14.5136C82.6469 14.9372 82.2129 15.2527 81.708 15.4687C81.2032 15.6819 80.6529 15.7928 80.0601 15.7928C78.988 15.7928 78.1059 15.4773 77.4139 14.8604C76.7161 14.2407 76.3304 13.4305 76.2538 12.4185H84.3316L84.3543 12.0121Z" fill="white"/>
<path d="M92.6632 14.3658L93.636 15.031C93.2531 15.6564 92.7341 16.1339 92.076 16.4551C91.4123 16.7849 90.6692 16.947 89.8523 16.947C88.8937 16.947 88.0399 16.7366 87.2911 16.3216C86.5367 15.9008 85.9496 15.3181 85.5156 14.5619C85.0873 13.8058 84.8718 12.9558 84.8718 12.0092C84.8718 11.0711 85.0873 10.2212 85.5156 9.47356C85.9496 8.72309 86.5367 8.1403 87.2911 7.72527C88.0399 7.30739 88.8937 7.09705 89.8523 7.09705C90.6834 7.09705 91.4265 7.26476 92.0846 7.58598C92.7426 7.91005 93.2531 8.38478 93.636 9.01017L92.6632 9.67538C92.3427 9.19781 91.9371 8.84246 91.4464 8.59515C90.9585 8.35636 90.4253 8.23981 89.8523 8.23981C89.1518 8.23981 88.5221 8.39329 87.9719 8.70883C87.4103 9.02437 86.9763 9.46503 86.6615 10.0393C86.3552 10.622 86.202 11.273 86.202 12.0092C86.202 12.7597 86.3552 13.4192 86.6615 13.9934C86.9763 14.5619 87.4103 15.0025 87.9719 15.3181C88.5221 15.6279 89.1518 15.79 89.8523 15.79C90.4253 15.79 90.9585 15.6706 91.4464 15.4375C91.9371 15.1987 92.3427 14.8491 92.6632 14.3658Z" fill="white"/>
<path d="M99.5349 15.3598C99.3534 15.5219 99.135 15.6413 98.8854 15.7237C98.633 15.8175 98.3749 15.8573 98.1026 15.8573C97.5608 15.8573 97.1495 15.701 96.8631 15.4025C96.5766 15.1069 96.4291 14.6662 96.4291 14.0892V8.31287H99.3676V7.20702H96.4291V5.08923H95.1301V14.1602C95.1301 15.0557 95.374 15.7521 95.8618 16.2411C96.3525 16.7357 97.0503 16.9802 97.9551 16.9802C98.3465 16.9802 98.7237 16.9233 99.0868 16.8039C99.4441 16.6845 99.7505 16.5168 99.9972 16.3008L99.5349 15.3598Z" fill="white"/>
<path d="M23.2182 14.0833C23.0622 14.5012 22.8127 14.8224 22.4439 15.0413C22.0837 15.2574 21.6696 15.3625 21.2044 15.3625C20.7251 15.3625 20.3507 15.2659 20.0784 15.0584C19.8061 14.8537 19.6643 14.5752 19.6643 14.2227C19.6643 13.4892 20.2231 13.1197 21.3434 13.1197H23.2182V14.0833ZM24.7697 8.53729C23.9897 7.84083 22.8694 7.48828 21.4115 7.48828C20.6599 7.48828 19.9196 7.58779 19.1992 7.78678C18.4845 7.98861 17.8633 8.27003 17.3528 8.63105L18.3313 10.5413C18.6716 10.2741 19.0857 10.0609 19.5707 9.89887C20.0529 9.74537 20.5436 9.66582 21.0457 9.66582C21.7717 9.66582 22.3106 9.825 22.668 10.1462C23.0367 10.4674 23.2182 10.928 23.2182 11.5221H21.0457C19.6729 11.5221 18.6518 11.7779 17.9909 12.2754C17.3301 12.7785 17.0039 13.475 17.0039 14.3506C17.0039 14.8964 17.1429 15.391 17.4265 15.8174C17.7045 16.2523 18.1101 16.5934 18.6376 16.8408C19.1709 17.0795 19.7977 17.2075 20.5266 17.2075C21.9249 17.2075 22.8779 16.7668 23.3884 15.8913V17.0681H25.944V11.6812C25.944 10.2798 25.5554 9.2309 24.7697 8.53729Z" fill="white"/>
<path d="M40.1024 11.6496H36.6789V5.18814H40.1024C41.3759 5.18814 42.3488 5.46671 43.0181 6.02957C43.6903 6.58389 44.025 7.37982 44.025 8.42593C44.025 9.4493 43.6903 10.2368 43.0181 10.8053C42.3488 11.3653 41.3759 11.6496 40.1024 11.6496ZM33.4257 14.2449C32.9719 14.7168 32.3989 14.9584 31.7126 14.9584C31.012 14.9584 30.4363 14.7168 29.9824 14.2449C29.5201 13.7759 29.2932 13.1448 29.2932 12.346C29.2932 11.5529 29.5201 10.919 29.9824 10.4443C30.4363 9.96954 31.012 9.73075 31.7126 9.73075C32.3989 9.73075 32.9719 9.96954 33.4257 10.4443C33.8795 10.919 34.1035 11.5529 34.1035 12.346C34.1035 13.1448 33.8795 13.7759 33.4257 14.2449ZM42.4537 12.4796C43.3897 12.1726 44.1158 11.6723 44.6263 10.9787C45.1312 10.2822 45.3892 9.43793 45.3892 8.42593C45.3892 7.05291 44.9213 5.97272 43.991 5.18814C43.0578 4.40356 41.7729 4.01123 40.1364 4.01123L34.0525 4.05391V8.62775C33.3775 7.86591 32.4387 7.48499 31.2389 7.48499C30.3511 7.48499 29.5456 7.68685 28.8337 8.08767C28.1133 8.47996 27.5546 9.04565 27.1405 9.78475C26.732 10.5238 26.5334 11.3738 26.5334 12.346C26.5334 13.3154 26.732 14.171 27.1405 14.9044C27.5546 15.6407 28.1133 16.2092 28.8337 16.6043C29.5456 17.0052 30.3511 17.2042 31.2389 17.2042C32.5181 17.2042 33.4994 16.7977 34.1773 15.9761V17.0648H36.7839V12.8065H40.1364C40.4938 12.8065 40.8342 12.7894 41.166 12.7525L44.1016 16.8943H45.5935L42.4537 12.4796Z" fill="white"/>
<path d="M47.2782 11.4464C47.3633 10.4827 47.7178 9.71519 48.356 9.11538C48.9828 8.52126 49.7599 8.22558 50.6902 8.22558C51.6347 8.22558 52.4176 8.52126 53.0557 9.11538C53.6854 9.71519 54.0428 10.4827 54.125 11.4464H47.2782ZM55.3787 12.0121C55.3787 11.0598 55.1745 10.2098 54.7689 9.47072C54.3633 8.72593 53.8102 8.14315 53.0983 7.73096C52.3892 7.3074 51.5893 7.09705 50.6902 7.09705C49.7968 7.09705 48.9941 7.3074 48.2794 7.73096C47.5646 8.14315 46.9974 8.72594 46.5918 9.47641C46.1805 10.2269 45.9763 11.074 45.9763 12.0121C45.9763 12.9587 46.1862 13.8086 46.6202 14.5591C47.0456 15.2982 47.6412 15.8895 48.4042 16.3102C49.1729 16.7395 50.0493 16.9498 51.042 16.9498C51.8106 16.9498 52.5169 16.8162 53.1607 16.5433C53.8046 16.2761 54.3434 15.8838 54.7689 15.3636L54.0371 14.5136C53.6712 14.9372 53.2316 15.2527 52.7324 15.4687C52.2304 15.6819 51.6773 15.7928 51.076 15.7928C50.0152 15.7928 49.1331 15.4773 48.4325 14.8604C47.7405 14.2407 47.3576 13.4305 47.2782 12.4185H55.356L55.3787 12.0121Z" fill="white"/>
<path d="M62.7689 12.7114C63.1064 13.0695 63.2652 13.5585 63.2652 14.1838C63.2652 15.031 62.9163 15.7047 62.2101 16.2022C61.5095 16.694 60.531 16.947 59.2859 16.947C58.5031 16.947 57.7486 16.8332 57.0338 16.603C56.3191 16.3784 55.7603 16.0913 55.3547 15.7473L55.9419 14.7155C56.3475 15.0395 56.8523 15.2982 57.4678 15.5029C58.0747 15.7047 58.7129 15.8042 59.3766 15.8042C60.2587 15.8042 60.9082 15.662 61.328 15.3891C61.7563 15.1162 61.9662 14.724 61.9662 14.218C61.9662 13.8683 61.8471 13.5869 61.6145 13.3851C61.3848 13.1804 61.0897 13.0269 60.7352 12.9217C60.3778 12.8165 59.9098 12.717 59.3199 12.6204C58.5371 12.4725 57.9074 12.3248 57.4253 12.1713C56.9488 12.0178 56.5432 11.7591 56.2085 11.3867C55.8738 11.0228 55.7036 10.5111 55.7036 9.85728C55.7036 9.0528 56.0411 8.38478 56.7133 7.87309C57.3827 7.35572 58.3215 7.09705 59.5241 7.09705C60.1453 7.09705 60.7693 7.17952 61.3989 7.34724C62.0229 7.5178 62.5306 7.73379 62.939 8.001L62.3718 9.05285C61.5748 8.49853 60.6218 8.22558 59.5241 8.22558C58.6931 8.22558 58.0634 8.37058 57.6437 8.66621C57.2154 8.96185 57.0055 9.34564 57.0055 9.82321C57.0055 10.1871 57.1246 10.4827 57.3629 10.7072C57.6011 10.9318 57.9017 11.091 58.2591 11.1962C58.608 11.2957 59.0986 11.4066 59.7283 11.5203C60.4969 11.6681 61.1124 11.8131 61.5804 11.9609C62.0427 12.1087 62.4399 12.3532 62.7689 12.7114Z" fill="white"/>
<path d="M72.5117 13.9849C72.194 14.5648 71.7685 15.0082 71.2155 15.3209C70.6624 15.6308 70.0554 15.7929 69.3775 15.7929C68.6883 15.7929 68.0728 15.6308 67.5368 15.3209C66.9922 15.0082 66.5583 14.5648 66.2491 13.9849C65.9343 13.4078 65.7811 12.7512 65.7811 12.0121C65.7811 11.2786 65.9343 10.6277 66.2491 10.0563C66.5583 9.4821 66.9922 9.04143 67.5368 8.72021C68.0728 8.40183 68.6883 8.24266 69.3775 8.24266C70.0554 8.24266 70.6624 8.40183 71.2155 8.72021C71.7685 9.04143 72.194 9.4821 72.5117 10.0563C72.8237 10.6277 72.9769 11.2786 72.9769 12.0121C72.9769 12.7512 72.8237 13.4078 72.5117 13.9849ZM73.6547 9.45364C73.2434 8.70886 72.662 8.12899 71.9302 7.71396C71.1956 7.30745 70.3759 7.09705 69.4711 7.09705C68.6628 7.09705 67.9339 7.27331 67.29 7.61728C66.6547 7.96124 66.1385 8.45301 65.7443 9.08977V7.17665H64.4934V20.4264H65.801V15.0367C66.1981 15.6592 66.7199 16.1368 67.3468 16.458C67.9849 16.7877 68.6883 16.9498 69.4711 16.9498C70.3901 16.9498 71.2155 16.7451 71.9416 16.3329C72.6705 15.9207 73.2434 15.3437 73.6547 14.5932C74.0773 13.8428 74.2815 12.9871 74.2815 12.0121C74.2815 11.0598 74.0773 10.2041 73.6547 9.45364Z" fill="white"/>
<path d="M76.2538 11.4464C76.3446 10.4827 76.6991 9.71519 77.3316 9.11538C77.9584 8.52126 78.7441 8.22558 79.6716 8.22558C80.6104 8.22558 81.4017 8.52126 82.0313 9.11538C82.661 9.71519 83.0184 10.4827 83.1006 11.4464H76.2538ZM84.3543 12.0121C84.3543 11.0598 84.1501 10.2098 83.7445 9.47072C83.3446 8.72593 82.7858 8.14315 82.0739 7.73096C81.3648 7.3074 80.5593 7.09705 79.6716 7.09705C78.7781 7.09705 77.9726 7.3074 77.2522 7.73096C76.5374 8.14315 75.973 8.72594 75.5674 9.47641C75.1562 10.2269 74.9519 11.074 74.9519 12.0121C74.9519 12.9587 75.1675 13.8086 75.5958 14.5591C76.0212 15.2982 76.6168 15.8895 77.3855 16.3102C78.1485 16.7395 79.0305 16.9498 80.0147 16.9498C80.7919 16.9498 81.4981 16.8162 82.142 16.5433C82.7858 16.2761 83.3162 15.8838 83.7445 15.3636L83.0099 14.5136C82.6469 14.9372 82.2129 15.2527 81.708 15.4687C81.2032 15.6819 80.6529 15.7928 80.0601 15.7928C78.988 15.7928 78.1059 15.4773 77.4139 14.8604C76.7161 14.2407 76.3304 13.4305 76.2538 12.4185H84.3316L84.3543 12.0121Z" fill="white"/>
<path d="M100 16.2979C99.7561 16.5168 99.447 16.6845 99.0896 16.8039C98.7266 16.9233 98.3493 16.9802 97.9579 16.9802C97.056 16.9802 96.3554 16.7329 95.8647 16.2439C95.3768 15.7521 95.1301 15.0585 95.1301 14.1602V5.08923H96.432V7.20702H99.3704V8.31287H96.432V14.092C96.432 14.6662 96.5794 15.1069 96.8659 15.4025C97.1524 15.7038 97.5665 15.8573 98.1054 15.8573C98.3777 15.8573 98.6358 15.8147 98.8882 15.7237C99.1407 15.6413 99.3562 15.5219 99.5378 15.3598L100 16.2979Z" fill="white"/>
</svg>
